<svg id="Capa_1" enable-background="new 0 0 510 510" height="512" viewBox="0 0 510 510" width="512" xmlns="http://www.w3.org/2000/svg" xmlns:xlink="http://www.w3.org/1999/xlink"><linearGradient id="lg1"><stop offset="0" stop-color="#814aa0"/><stop offset=".4701" stop-color="#5b3374"/><stop offset="1" stop-color="#192a7d"/></linearGradient><linearGradient id="SVGID_1_" gradientUnits="userSpaceOnUse" x1="20" x2="634.007" xlink:href="#lg1" y1="461.85" y2="461.85"/><linearGradient id="SVGID_2_" gradientUnits="userSpaceOnUse" x1="228" x2="411.044" xlink:href="#lg1" y1="475.184" y2="475.184"/><linearGradient id="lg2"><stop offset="0" stop-color="#fe646f"/><stop offset=".593" stop-color="#fb2b3a"/><stop offset="1" stop-color="#c41926"/></linearGradient><linearGradient id="SVGID_3_" gradientUnits="userSpaceOnUse" x1="22.699" x2="522.002" xlink:href="#lg2" y1="307.491" y2="307.491"/><linearGradient id="SVGID_4_" gradientUnits="userSpaceOnUse" x1="-158" x2="395.044" xlink:href="#lg2" y1="307.489" y2="307.489"/><linearGradient id="SVGID_5_" gradientUnits="userSpaceOnUse" x1="113.636" x2="414.889" y1="282.035" y2="282.035"><stop offset="0" stop-color="#f8f6f7"/><stop offset=".1788" stop-color="#f8f6f7"/><stop offset="1" stop-color="#e7e6f5"/></linearGradient><linearGradient id="lg3"><stop offset="0" stop-color="#f8f6f7"/><stop offset="1" stop-color="#d1ceeb"/></linearGradient><linearGradient id="SVGID_6_" gradientUnits="userSpaceOnUse" x1="42.712" x2="435.026" xlink:href="#lg3" y1="444.095" y2="444.095"/><linearGradient id="SVGID_7_" gradientUnits="userSpaceOnUse" x1="42.712" x2="435.026" xlink:href="#lg3" y1="436.539" y2="436.539"/><linearGradient id="SVGID_8_" gradientUnits="userSpaceOnUse" x1="42.712" x2="435.026" xlink:href="#lg3" y1="282.035" y2="282.035"/><linearGradient id="SVGID_9_" gradientUnits="userSpaceOnUse" x1="90.779" x2="404.727" xlink:href="#lg1" y1="252.818" y2="252.818"/><linearGradient id="SVGID_11_" gradientUnits="userSpaceOnUse" x1="90.779" x2="404.727" xlink:href="#lg1" y1="326.206" y2="326.206"/><linearGradient id="SVGID_12_" gradientUnits="userSpaceOnUse" x1="-40.395" x2="694.658" xlink:href="#lg1" y1="255" y2="255"/><linearGradient id="SVGID_13_" gradientUnits="userSpaceOnUse" x1="-43.395" x2="488.901" xlink:href="#lg1" y1="255.005" y2="255.005"/><linearGradient id="lg4"><stop offset="0" stop-color="#fff9df"/><stop offset=".593" stop-color="#ffe177"/><stop offset="1" stop-color="#feb237"/></linearGradient><linearGradient id="SVGID_14_" gradientUnits="userSpaceOnUse" x1="145.286" x2="305.3" xlink:href="#lg4" y1="262.374" y2="262.374"/><linearGradient id="SVGID_15_" gradientUnits="userSpaceOnUse" x1="283.404" x2="443.418" xlink:href="#lg4" y1="262.374" y2="262.374"/><g><path d="m483.247 509.999c28.016 0 37.138-37.644 12.223-50.457-54.017-27.78-141.601-45.84-240.47-45.84s-186.454 18.06-240.47 45.84c-24.915 12.813-15.793 50.457 12.223 50.457z" fill="url(#SVGID_1_)"/><path d="m495.47 459.541c-13.741-7.067-29.665-13.501-47.384-19.172 2.511 1.528 4.982 3.072 7.364 4.65 24.915 16.501 15.793 64.979-12.223 64.979h40.02c28.017.001 37.138-37.643 12.223-50.457z" fill="url(#SVGID_2_)"/><path d="m65.187 424.411c121.448 34.095 258.177 34.095 379.625 0 25.735-7.225 42.489-24.121 42.489-42.851v-.057c0-79.162-56.479-153.533-151.902-200.022-50.384-21.996-110.401-21.976-160.765.053l-.238.104c-95.303 46.499-151.697 120.821-151.697 199.922 0 18.73 16.754 35.627 42.488 42.851z" fill="url(#SVGID_3_)"/><path d="m335.399 181.482c-50.385-21.996-110.401-21.976-160.765.053l-.238.104c-44.399 21.662-80.347 49.365-106.089 80.774 3.339-2.775 6.779-5.5 10.302-8.182.585 26.301 7.878 50.067 20.282 71.451 4.163 7.177 2.443 16.358-4.005 21.579-10.453 8.462-16.348 18.037-16.348 28.179 0 18.991 20.66 35.995 53.23 47.424v16.572c22.265 3.868 44.833 6.666 67.542 8.402.417-1.744.643-3.561.643-5.433 0 1.906.234 3.757.666 5.53 22.021 1.644 44.165 2.309 66.285 1.95.796-2.349 1.234-4.863 1.234-7.48 0 2.596.431 5.091 1.215 7.423 22.343-.438 44.65-1.902 66.767-4.384.13-.996.204-2.008.204-3.039v-22.603c27.848-11.299 45.116-27 45.116-44.362 0-10.142-5.895-19.717-16.347-28.178-6.518-5.277-8.084-14.524-3.887-21.785 9.425-16.308 15.883-34.539 18.672-53.956 45.728 41.873 71.258 92.928 71.258 146.15v.057c0 1.609-.132 3.202-.375 4.779 22.334-8.019 36.54-23.702 36.54-40.945v-.057c0-79.163-56.479-153.534-151.902-200.023z" fill="url(#SVGID_4_)"/><g><path d="m386.217 325.476c12.885-22.294 20.255-48.174 20.234-75.78-.066-83.846-67.605-151.329-151.451-151.329-83.644 0-151.451 67.807-151.451 151.451 0 27.645 7.413 53.556 20.353 75.863 4.163 7.177 2.443 16.358-4.005 21.579-10.453 8.462-16.348 18.037-16.348 28.179 0 18.991 20.66 35.995 53.23 47.424v19.541c0 12.868 10.431 23.299 23.299 23.299h21.587c12.868 0 23.299-10.431 23.299-23.299 0 12.868 10.431 23.299 23.299 23.299h21.587c12.868 0 23.299-10.431 23.299-23.299 0 12.868 10.431 23.299 23.299 23.299h21.587c12.868 0 23.299-10.431 23.299-23.299v-22.603c27.848-11.299 45.116-27 45.116-44.362 0-10.142-5.895-19.716-16.347-28.178-6.517-5.278-8.082-14.524-3.886-21.785z" fill="url(#SVGID_5_)"/><g><path d="m210.552 422.487c-7.96 0-14.413 6.453-14.413 14.413v5.505c0 11.637-8.531 21.279-19.68 23.018 1.179.184 2.388.281 3.619.281h21.587c12.868 0 23.299-10.431 23.299-23.299v-5.505c0-7.96-6.452-14.413-14.412-14.413z" fill="url(#SVGID_6_)"/><path d="m278.737 407.376c-7.96 0-14.413 6.453-14.413 14.413v20.616c0 11.637-8.531 21.279-19.68 23.018 1.18.184 2.388.281 3.619.281h21.587c12.868 0 23.299-10.431 23.299-23.299v-20.616c0-7.961-6.452-14.413-14.412-14.413z" fill="url(#SVGID_7_)"/><path d="m390.29 347.412c-6.538-5.329-8.294-14.633-4.073-21.936 12.885-22.294 20.256-48.174 20.234-75.78-.066-83.846-67.605-151.329-151.451-151.329-4.851 0-9.645.238-14.379.684 77.022 7.228 136.943 71.674 137.005 150.645.022 27.606-7.349 53.486-20.234 75.78-4.221 7.302-2.465 16.607 4.073 21.936 10.336 8.425 16.161 17.946 16.161 28.027 0 15.183-13.206 29.097-35.146 39.906-6.135 3.023-9.97 9.323-9.97 16.162v10.898c0 11.637-8.531 21.279-19.68 23.018 1.18.184 2.388.281 3.619.281h21.587c12.868 0 23.299-10.431 23.299-23.299v-22.603c27.848-11.299 45.116-27 45.116-44.362 0-10.083-5.825-19.604-16.161-28.028z" fill="url(#SVGID_8_)"/></g><g><path d="m209.138 211.089c-27.034-12.774-57.777-4.446-68.666 18.6-10.89 23.046 2.198 52.084 29.232 64.858s57.777 4.446 68.666-18.6c10.89-23.047-2.198-52.085-29.232-64.858z" fill="url(#SVGID_9_)"/><path d="m369.528 229.689c-10.89-23.046-41.632-31.374-68.666-18.6s-40.122 41.812-29.232 64.858c10.889 23.046 41.632 31.374 68.666 18.6s40.121-41.812 29.232-64.858z" fill="url(#SVGID_9_)"/><path d="m262.474 303.509c-4.192-3.966-10.753-3.964-14.941.005l-.027.026c-8.862 8.396-14.105 21.816-14.105 36.099 0 3.382 1.558 6.433 3.951 7.737 11.002 5.998 24.297 5.998 35.299 0 2.393-1.305 3.951-4.356 3.951-7.737v-.01c0-14.294-5.252-27.723-14.124-36.117-.002 0-.003-.001-.004-.003z" fill="url(#SVGID_11_)"/></g></g><path d="m338.05 48.499-41.06-33.28c-25.04-20.3-58.93-20.29-83.96.03l-41.29 33.52c-98.44 79.92-156.7 207.67-156.7 343.63 0 16.1 4.33 31.4 11.98 44.24s18.62 23.2 31.91 29.41c62.73 29.3 129.4 43.95 196.07 43.95s133.34-14.65 196.07-43.95c13.29-6.21 24.26-16.57 31.91-29.41s11.98-28.14 11.98-44.24v-.1c0-136.07-58.34-263.89-156.91-343.8zm138.31 329.12c0 17.74-15.96 33.73-40.49 40.57-24.3 6.78-49.23 12.14-74.54 16.06v8.16c0 12.86-10.43 23.29-23.29 23.29h-21.59c-12.87 0-23.3-10.43-23.3-23.29 0 12.86-10.43 23.29-23.3 23.29h-21.59c-12.86 0-23.3-10.43-23.3-23.29 0 12.86-10.43 23.29-23.29 23.29h-21.59c-12.87 0-23.3-10.43-23.3-23.29v-6.94c-28.09-4.02-55.76-9.78-82.65-17.28-12.27-3.42-22.39-9.13-29.44-16.2-7.06-7.07-11.05-15.5-11.05-24.37 0-37.44 13.44-73.76 38.22-106.22 9.21-12.06 19.99-23.59 32.23-34.46 20.7-18.35 45.57-34.78 74.1-48.61l.23-.1c47.99-20.85 105.18-20.87 153.19-.05 28.62 13.85 53.56 30.32 74.3 48.73 12.21 10.83 22.97 22.33 32.17 34.37 24.82 32.47 38.28 68.82 38.28 106.29z" fill="url(#SVGID_12_)"/><path d="m338.05 48.499-41.06-33.28c-18.244-14.79-41.182-18.786-61.972-12.014 7.731 2.518 15.168 6.514 21.952 12.014l41.06 33.28c69.104 56.022 118.43 135.592 141.749 225.043 23.731 31.892 36.581 67.424 36.581 104.027v.05c0 13.194-8.833 25.417-23.45 33.63-1.982 9.107-5.364 17.693-9.95 25.39-7.65 12.84-18.62 23.2-31.91 29.41-56.453 26.368-116.097 40.865-176.06 43.503 6.667.293 13.339.447 20.01.447 66.67 0 133.34-14.65 196.07-43.95 13.29-6.21 24.26-16.57 31.91-29.41s11.98-28.14 11.98-44.24v-.1c0-136.07-58.34-263.89-156.91-343.8z" fill="url(#SVGID_13_)"/><g><circle cx="185.941" cy="262.374" fill="url(#SVGID_14_)" r="14.784"/><circle cx="324.059" cy="262.374" fill="url(#SVGID_15_)" r="14.784"/></g></g></svg>